<svg xmlns="http://www.w3.org/2000/svg" xmlns:xlink="http://www.w3.org/1999/xlink" width="1080" zoomAndPan="magnify" viewBox="0 0 810 809.999993" height="1080" preserveAspectRatio="xMidYMid meet" version="1.0"><rect x="-81" width="972" fill="#ffffff" y="-80.999999" height="971.999992" fill-opacity="1"/><rect x="-81" width="972" fill="#fffcf7" y="-80.999999" height="971.999992" fill-opacity="1"/><path fill="#313131" d="M 265.832031 530.460938 C 253.457031 531.011719 241.617188 530.027344 230.515625 524.753906 C 210.765625 515.378906 199.671875 499.757812 197.011719 478.070312 C 195.601562 466.558594 196.835938 455.304688 200.082031 444.226562 C 204.207031 430.148438 213.578125 420.316406 225.65625 412.683594 C 242.265625 402.1875 260.65625 395.839844 279.128906 389.675781 C 296.980469 383.714844 314.890625 377.90625 332.292969 370.6875 C 332.484375 370.605469 332.699219 370.574219 332.894531 370.492188 C 338.652344 368.164062 338.761719 368.164062 338.640625 362 C 338.433594 351.234375 339.636719 340.394531 337.308594 329.730469 C 333.648438 312.972656 323.320312 296.050781 302.828125 292.714844 C 289.933594 290.613281 277.207031 291.375 265.5 297.769531 C 256.921875 302.457031 257.382812 303.113281 259.386719 313.214844 C 260.492188 318.804688 261.863281 324.332031 262.535156 330.007812 C 263.957031 341.996094 258.875 350.800781 247.726562 355.582031 C 241.867188 358.09375 235.765625 359.015625 229.464844 358.476562 C 216.035156 357.324219 210.503906 348.214844 209.023438 336.882812 C 206.875 320.398438 213.722656 307.929688 226.011719 297.847656 C 242.085938 284.664062 260.453125 276.234375 281.066406 273.734375 C 300.621094 271.359375 320.101562 272.734375 339.242188 277.859375 C 362.929688 284.203125 376.859375 299.828125 382.773438 323.183594 C 386.179688 336.636719 386.539062 350.320312 386.191406 364.109375 C 385.832031 378.492188 386.171875 392.898438 385.75 407.277344 C 385.238281 424.734375 385.636719 442.191406 385.113281 459.636719 C 384.878906 467.355469 384.289062 475.0625 385.398438 482.746094 C 386.777344 492.308594 392.183594 498.835938 401.121094 502.121094 C 405.058594 503.570312 409.464844 503.238281 413.683594 503.34375 C 417.070312 503.425781 420.457031 503.433594 423.84375 503.386719 C 425.726562 503.359375 426.554688 504.195312 426.542969 506.042969 C 426.519531 509.957031 426.511719 513.875 426.542969 517.789062 C 426.554688 519.289062 425.828125 520.097656 424.464844 520.578125 C 409.75 525.761719 394.953125 530.457031 379.011719 529.152344 C 356.292969 527.292969 341.351562 513.332031 339.234375 488.761719 C 338.820312 483.925781 338.039062 479.097656 338.019531 474.261719 C 337.964844 461.046875 338.207031 447.832031 338.367188 434.617188 C 338.46875 426.367188 338.492188 418.113281 338.820312 409.871094 C 339.042969 404.273438 339.277344 398.675781 339.226562 393.074219 C 339.21875 392.039062 339.46875 390.953125 338.753906 389.839844 C 335.796875 389.789062 333.109375 391.132812 330.335938 392.003906 C 312.761719 397.515625 295.421875 403.625 279.320312 412.773438 C 265.25 420.765625 254.097656 431.410156 249.359375 447.371094 C 245.816406 459.320312 245.847656 471.367188 250.507812 483.113281 C 254.703125 493.691406 262.890625 499.375 273.835938 501.429688 C 277.695312 502.15625 281.601562 502.246094 285.527344 502.246094 C 287.851562 502.25 289.050781 501.371094 289.957031 499.152344 C 292.949219 491.839844 299.914062 487.394531 307.585938 487.410156 C 318.554688 487.429688 324.5625 497.792969 319.722656 508.199219 C 317.417969 513.15625 313.125 516.023438 308.492188 518.53125 C 295.257812 525.691406 281.15625 529.699219 265.832031 530.460938 Z M 265.832031 530.460938 " fill-opacity="1" fill-rule="nonzero"/><path fill="#313131" d="M 424.675781 312.300781 C 417.527344 303.988281 408.347656 299.746094 398.117188 297.417969 C 393.523438 296.375 393.507812 296.433594 393.496094 291.605469 C 393.488281 289.066406 393.597656 286.519531 393.449219 283.988281 C 393.273438 280.96875 394.207031 279.585938 397.5625 279.757812 C 402.839844 280.023438 408.140625 279.824219 413.429688 279.824219 C 442.742188 279.824219 472.050781 279.824219 501.363281 279.828125 C 505.800781 279.828125 505.800781 279.835938 505.816406 284.171875 C 505.824219 287.347656 505.679688 290.53125 505.867188 293.691406 C 506.054688 296.828125 504.847656 297.960938 501.683594 298.058594 C 495.121094 298.269531 488.636719 299.246094 482.476562 301.691406 C 476.703125 303.984375 475.824219 306.222656 478.128906 311.929688 C 488.898438 338.578125 499.625 365.246094 510.386719 391.898438 C 519.011719 413.257812 527.660156 434.609375 536.316406 455.960938 C 536.703125 456.917969 537.246094 457.8125 537.960938 459.21875 C 540.429688 453.335938 542.742188 447.914062 544.992188 442.464844 C 559.46875 407.382812 574.578125 372.5625 588.585938 337.285156 C 591.234375 330.609375 593.726562 323.871094 595.34375 316.832031 C 596.25 312.890625 595.113281 309.746094 592.351562 307.058594 C 588.035156 302.863281 582.539062 300.898438 576.941406 299.265625 C 572.886719 298.085938 568.753906 297.152344 564.617188 296.304688 C 562.824219 295.933594 562.09375 295.175781 562.132812 293.355469 C 562.210938 289.757812 562.21875 286.15625 562.125 282.5625 C 562.070312 280.480469 562.957031 279.773438 564.960938 279.808594 C 569.296875 279.890625 573.636719 279.828125 577.976562 279.828125 C 602.3125 279.828125 626.652344 279.828125 650.988281 279.832031 C 655.226562 279.832031 655.308594 279.847656 655.222656 283.980469 C 655.148438 287.453125 656.472656 291.492188 654.65625 294.246094 C 652.894531 296.917969 648.578125 296.605469 645.441406 297.789062 C 632.097656 302.820312 622.507812 311.636719 616.660156 324.757812 C 601.816406 358.070312 587.589844 391.652344 573.273438 425.195312 C 561.914062 451.820312 549.742188 478.128906 540.621094 505.667969 C 538.890625 510.886719 537.140625 516.097656 535.550781 521.359375 C 534.96875 523.277344 534.050781 524.132812 531.980469 524.085938 C 527.113281 523.96875 522.242188 523.980469 517.378906 524.070312 C 515.398438 524.109375 514.371094 523.394531 513.613281 521.507812 C 506.175781 502.964844 498.671875 484.449219 491.128906 465.953125 C 474.933594 426.226562 458.957031 386.410156 442.011719 346.992188 C 438.339844 338.449219 434.523438 329.964844 430.691406 321.488281 C 429.203125 318.199219 427.183594 315.214844 424.675781 312.300781 Z M 424.675781 312.300781 " fill-opacity="1" fill-rule="nonzero"/></svg>